# AST/ASF file generated using VICON BodyLanguage
# -----------------------------------------------
:version 1.10
:name VICON
:units
  mass 1.0
  length 0.45
  angle deg
:documentation
   .ast/.asf automatically generated from VICON data using
   VICON BodyBuilder and BodyLanguage model FoxedUp or BRILLIANT.MOD
:root
   order TX TY TZ RX RY RZ
   axis XYZ
   position 0 0 0  
   orientation 0 0 0 
:bonedata
  begin
     id 1 
     name lhipjoint
     direction 0.624716 -0.669793 0.401383 
     length 2.38238 
     axis 0 0 0  XYZ
  end
  begin
     id 2 
     name lfemur
     direction 0.34202 -0.939693 0  
     length 6.4574  
     axis 0 0 20  XYZ
    dof rx ry rz
    limits (-160.0 20.0)
           (-70.0 70.0)
           (-60.0 70.0)
  end
  begin
     id 3 
     name ltibia
     direction 0.34202 -0.939693 0   
     length 7.68739   
     axis 0 0 20   XYZ
    dof rx
    limits (-10.0 170.0)
  end
  begin
     id 4 
     name lfoot
     direction 0.0681309 -0.187188 0.979959   
     length 2.46615   
     axis -90 7.62852e-016 20   XYZ
    dof rx rz
    limits (-45.0 90.0)
           (-70.0 20.0)
  end
  begin
     id 5 
     name ltoes
     direction 1.53566e-011 -4.21819e-011 1   
     length 1.2376   
     axis -90 7.62852e-016 20   XYZ
    dof rx
    limits (-90.0 20.0)
  end
  begin
     id 6 
     name rhipjoint
     direction -0.644473 -0.655875 0.393043   
     length 2.43293  
     axis 0 0 0  XYZ 
  end
  begin
     id 7 
     name rfemur
     direction -0.34202 -0.939693 0   
     length 6.7025   
     axis 0 0 -20   XYZ
    dof rx ry rz
    limits (-160.0 20.0)
           (-70.0 70.0)
           (-70.0 60.0)
  end
  begin
     id 8 
     name rtibia
     direction -0.34202 -0.939693 0   
     length 7.80547   
     axis 0 0 -20   XYZ
    dof rx
    limits (-10.0 170.0)
 end
 begin
     id 9 
     name rfoot
     direction -0.0756734 -0.207911 0.975216   
     length 2.40315  
     axis -90 -7.62852e-016 -20   XYZ
    dof rx rz
    limits (-45.0 90.0)
           (-20.0 70.0)
  end
  begin
     id 10 
     name rtoes
     direction -1.5353e-011 -4.21879e-011 1   
     length 1.20477   
     axis -90 -7.62852e-016 -20   XYZ
    dof rx
    limits (-90.0 20.0)
  end
  begin
     id 11 
     name lowerback
     direction 0.0160353 0.987463 -0.157037   
     length 2.18572   
     axis 0 0 0   XYZ
    dof rx ry rz
    limits (-20.0 45.0)
           (-30.0 30.0)
           (-30.0 30.0)
  end
  begin
     id 12 
     name upperback
     direction -0.00499661 0.999756 0.0215076   
     length 2.18016   
     axis 0 0 0   XYZ
    dof rx ry rz
    limits (-20.0 45.0)
           (-30.0 30.0)
           (-30.0 30.0)
  end
  begin
     id 13 
     name thorax
     direction -0.00921346 0.995333 0.0960619   
     length 2.24923   
     axis 0 0 0   XYZ
    dof rx ry rz
    limits (-20.0 45.0)
           (-30.0 30.0)
           (-30.0 30.0)
  end
  begin
     id 14 
     name lowerneck
     direction 0.0274184 0.991181 0.12965   
     length 1.70911   
     axis 0 0 0   XYZ
    dof rx ry rz
    limits (-20.0 45.0)
           (-30.0 30.0)
           (-30.0 30.0)
  end
  begin
     id 15 
     name upperneck
     direction 0.0015627 0.999959 -0.00893559   
     length 1.69312   
     axis 0 0 0   XYZ
    dof rx ry rz
    limits (-20.0 45.0)
           (-30.0 30.0)
           (-30.0 30.0)
  end
  begin
     id 16
     name head
     direction -0.00230242 0.999856 -0.0168327  
     length 1.80241  
     axis 0 0 0   XYZ
    dof rx ry rz
    limits (-20.0 45.0)
           (-30.0 30.0)
           (-30.0 30.0)
  end
  begin
     id 17 
     name lclavicle
     direction 0.955523 0.290741 -0.0494489  
     length 3.84275  
     axis 0 0 0   XYZ
    dof ry rz
    limits (-20.0 10.0)
           (0.0 20.0)
  end
  begin
     id 18 
     name lhumerus
     direction 1 -4.48967e-011 -3.18382e-028   
     length 5.17714   
     axis 180 -30 -90   XYZ
    dof rx ry rz
    limits (-60.0 90.0)
           (-90.0 90.0)
           (-90.0 90.0)
  end
  begin
     id 19
     name lradius
     direction 1 -4.48968e-011 -2.22911e-027   
     length 3.43679   
     axis 180 -30 -90   XYZ
    dof rx
    limits (-10.0 170.0)
  end
  begin
     id 20
     name lwrist
     direction 1 -4.48951e-011 -6.32245e-027   
     length 1.7184   
     axis 3.57107e-015 90 90   XYZ
    dof ry
    limits (-180.0 0.0)
 end
  begin
     id 21 
     name lhand
     direction 1 -4.48924e-011 -1.26431e-026   
     length 0.573117   
     axis 8.06912e-015 90 90   XYZ
    dof rx rz
    limits (-90.0 90.0)
           (-45.0 45.0)
  end
  begin
     id 22 
     name lfingers
     direction 1 -4.49001e-011 -2.52965e-026   
     length 0.462062   
     axis 1.61381e-014 90 90   XYZ
    dof rx
    limits (0.0 90.0)
  end
  begin
     id 23
     name lthumb
     direction 0.707107 -6.35008e-011 0.707107   
     length 0.663431   
     axis -90 45 -1.62303e-014   XYZ
    dof rx rz
    limits (-45.0 45.0)
           (-45.0 45.0)
  end
  begin
     id 24 
     name rclavicle
     direction -0.963917 0.256881 -0.0698287   
     length 3.73057  
     axis 0 0 0   XYZ 
    dof ry rz
    limits (-10.0 20.0)
           (-20.0 0.0)
  end
  begin
     id 25 
     name rhumerus
     direction -1 -4.48962e-011 -2.73982e-027  
     length 5.23908   
     axis 180 30 90   XYZ
    dof rx ry rz
    limits (-90.0 60.0)
           (-90.0 90.0)
           (-90.0 90.0)
  end
  begin
     id 26 
     name rradius
     direction -1 -4.48968e-011 -4.33218e-027   
     length 3.46485   
     axis 180 30 90   XYZ
    dof rx
    limits (-10.0 170.0)
  end
  begin
     id 27 
     name rwrist
     direction -1 -4.48989e-011 -6.32372e-027   
     length 1.73243   
     axis 3.57107e-015 -90 -90   XYZ
    dof ry
    limits (-180.0 0.0)
  end
  begin
     id 28
     name rhand
     direction -1 -4.48948e-011 -1.26448e-026   
     length 0.608752   
     axis 8.06912e-015 -90 -90   XYZ
    dof rx rz
    limits (-90.0 90.0)
           (-45.0 45.0)
  end
  begin
     id 29
     name rfingers
     direction -1 -4.48962e-011 -2.52913e-026   
     length 0.490792   
     axis 1.61381e-014 -90 -90   XYZ
    dof rx
    limits (0.0 90.0)
  end
  begin
     id 30
     name rthumb
     direction -0.707107 -6.34878e-011 0.707107   
     length 0.704682   
     axis -90 -45 1.62303e-014   XYZ
    dof rx rz
    limits (-45.0 45.0)
           (-45.0 45.0)
  end
:hierarchy
  begin
    root lhipjoint rhipjoint lowerback
    lhipjoint lfemur
    lfemur ltibia
    ltibia lfoot
    lfoot ltoes
    rhipjoint rfemur
    rfemur rtibia
    rtibia rfoot
    rfoot rtoes
    lowerback upperback
    upperback thorax
    thorax lowerneck lclavicle rclavicle
    lowerneck upperneck
    upperneck head
    lclavicle lhumerus
    lhumerus lradius
    lradius lwrist
    lwrist lhand lthumb
    lhand lfingers
    rclavicle rhumerus
    rhumerus rradius
    rradius rwrist
    rwrist rhand rthumb
    rhand rfingers
  end

#!OML:ASF G:\JayActor3\Patient Classification 1\Patient 1\Session 6\male.ASF
:FULLY-SPECIFIED
:DEGREES
1
root 49.5693 15.9795 16.9326 175.614 -49.7455 -172.895
lowerback -2.13918 -0.969469 4.18731
upperback 3.53566 -1.67027 1.91818
thorax 4.8023 -0.758039 -0.466839
lowerneck -3.15917 -0.673219 1.70346
upperneck 1.92502 -0.980824 0.238235
head 1.10813 -0.474933 -0.228112
rclavicle -1.25731e-014 -1.51076e-014
rhumerus -30.4316 -3.71764 -83.7833
rradius 30.133
rwrist 1.55504
rhand -20.4824 -2.20586
rfingers 7.12502
rthumb 5.87414 -32.1044
lclavicle -1.25731e-014 -1.51076e-014
lhumerus -28.897 5.51109 86.1683
lradius 26.9015
lwrist 20.1243
lhand -17.1612 8.88801
lfingers 7.12502
lthumb 9.07984 38.6726
rfemur -10.8197 2.43272 27.8283
rtibia 34.6567
rfoot -25.5034 -12.2843
rtoes 2.99467
lfemur -5.4943 10.7959 -15.6555
ltibia 27.267
lfoot -21.4627 6.02902
ltoes -2.37259
2
root 49.5682 15.9793 16.9325 175.611 -49.7452 -172.911
lowerback -2.16151 -0.868515 4.27505
upperback 3.48644 -1.5384 1.93567
thorax 4.76719 -0.690456 -0.489777
lowerneck -2.86439 -0.79007 1.39282
upperneck 1.78574 -1.12153 0.412768
head 1.01498 -0.546255 -0.123201
rclavicle -7.95387e-014 -1.37161e-014
rhumerus -30.6132 -3.94589 -83.567
rradius 30.1456
rwrist 1.58848
rhand -20.6992 -2.24481
rfingers 7.12502
rthumb 5.66473 -32.1491
lclavicle -7.95387e-014 -1.37161e-014
lhumerus -29.0056 5.35363 86.3368
lradius 26.9499
lwrist 20.0614
lhand -17.1124 8.9048
lfingers 7.12502
lthumb 9.12691 38.6873
rfemur -10.808 2.42244 27.8151
rtibia 34.6581
rfoot -25.4566 -12.3427
rtoes 2.74262
lfemur -5.46503 10.7547 -15.6733
ltibia 27.2534
lfoot -21.4586 6.0735
ltoes -2.36292
3
root 49.5691 15.9795 16.9324 175.619 -49.7573 -172.93
lowerback -2.16431 -0.838667 4.2858
upperback 3.51072 -1.49805 1.89625
thorax 4.79446 -0.668287 -0.534297
lowerneck -2.94768 -0.81841 1.48075
upperneck 1.78397 -1.16507 0.428211
head 1.0281 -0.567234 -0.134247
rclavicle -5.35973e-014 4.77083e-014
rhumerus -30.5845 -4.15029 -83.5697
rradius 30.1072
rwrist 1.70444
rhand -20.9072 -2.26447
rfingers 7.12502
rthumb 5.46392 -32.174
lclavicle -5.35973e-014 4.77083e-014
lhumerus -28.8711 5.16573 86.3323
lradius 26.8336
lwrist 20.1199
lhand -17.1365 8.90686
lfingers 7.12502
lthumb 9.10361 38.6904
rfemur -10.8125 2.42069 27.807
rtibia 34.6676
rfoot -25.4718 -12.3688
rtoes 2.76585
lfemur -5.45602 10.767 -15.6819
ltibia 27.2343
lfoot -21.4476 6.05337
ltoes -2.4858
4
root 49.5677 15.979 16.9323 175.613 -49.7298 -172.956
lowerback -2.16074 -0.853898 4.25012
upperback 3.5228 -1.5187 1.91341
thorax 4.80548 -0.680231 -0.497954
lowerneck -2.95282 -0.799254 1.4668
upperneck 1.81455 -1.13851 0.403612
head 1.03866 -0.554101 -0.139182
rclavicle 3.21037e-014 -2.18663e-015
rhumerus -30.5626 -4.15728 -83.5439
rradius 30.0628
rwrist 1.86265
rhand -20.999 -2.26496
rfingers 7.12502
rthumb 5.37532 -32.1768
lclavicle 3.21037e-014 -2.18663e-015
lhumerus -28.9048 5.26368 86.3274
lradius 26.8837
lwrist 20.0897
lhand -17.1493 8.86915
lfingers 7.12502
lthumb 9.09123 38.6532
rfemur -10.7818 2.4457 27.7901
rtibia 34.6767
rfoot -25.4848 -12.341
rtoes 2.82094
lfemur -5.40712 10.7558 -15.6979
ltibia 27.2157
lfoot -21.4485 6.08359
ltoes -2.40713
5
root 49.5669 15.9787 16.9322 175.612 -49.7153 -172.98
lowerback -2.16398 -0.838003 4.2482
upperback 3.53361 -1.49799 1.90832
thorax 4.81936 -0.669632 -0.501019
lowerneck -2.94431 -0.812995 1.45626
upperneck 1.80552 -1.15661 0.418812
head 1.0344 -0.563097 -0.133
rclavicle 5.27276e-014 -3.22031e-014
rhumerus -30.5635 -4.25489 -83.5109
rradius 30.0362
rwrist 1.97648
rhand -21.1129 -2.31307
rfingers 7.12502
rthumb 5.26531 -32.2277
lclavicle 5.27276e-014 -3.22031e-014
lhumerus -28.9153 5.24605 86.3351
lradius 26.9256
lwrist 20.076
lhand -17.1423 8.86413
lfingers 7.12502
lthumb 9.09802 38.6479
rfemur -10.7653 2.45778 27.7755
rtibia 34.6882
rfoot -25.4916 -12.3393
rtoes 2.82347
lfemur -5.37059 10.7524 -15.7122
ltibia 27.1956
lfoot -21.4453 6.10466
ltoes -2.40347
6
root 49.566 15.9783 16.9321 175.611 -49.6968 -173.004
lowerback -2.16807 -0.829193 4.23959
upperback 3.55105 -1.48689 1.90188
thorax 4.8404 -0.663889 -0.502403
lowerneck -2.95437 -0.8177 1.46763
upperneck 1.79917 -1.16362 0.422423
head 1.03406 -0.566527 -0.13393
rclavicle -6.72638e-014 6.55989e-015
rhumerus -30.5484 -4.325 -83.4997
rradius 30.0169
rwrist 2.06858
rhand -21.1968 -2.41559
rfingers 7.12502
rthumb 5.1843 -32.3322
lclavicle -6.72638e-014 6.55989e-015
lhumerus -28.9237 5.24814 86.3284
lradius 26.9803
lwrist 20.0646
lhand -17.1317 8.85683
lfingers 7.12502
lthumb 9.10822 38.6402
rfemur -10.7471 2.47274 27.7604
rtibia 34.7003
rfoot -25.4985 -12.3359
rtoes 2.82584
lfemur -5.33118 10.7529 -15.7267
ltibia 27.1756
lfoot -21.4433 6.12632
ltoes -2.39656
7
root 49.565 15.9778 16.932 175.606 -49.6739 -173.03
lowerback -2.17093 -0.820261 4.23181
upperback 3.57186 -1.47588 1.89544
thorax 4.86427 -0.65814 -0.504254
lowerneck -2.96192 -0.820683 1.47676
upperneck 1.78956 -1.16819 0.42647
head 1.03229 -0.568767 -0.134283
rclavicle 1.45659e-013 -7.55382e-015
rhumerus -30.5322 -4.38021 -83.4939
rradius 30.0085
rwrist 2.13676
rhand -21.2476 -2.55491
rfingers 7.12502
rthumb 5.13531 -32.4727
lclavicle 1.45659e-013 -7.55382e-015
lhumerus -28.934 5.25839 86.3203
lradius 27.0413
lwrist 20.0518
lhand -17.1227 8.84395
lfingers 7.12502
lthumb 9.11693 38.6269
rfemur -10.7234 2.49019 27.7449
rtibia 34.7123
rfoot -25.5055 -12.3303
rtoes 2.82864
lfemur -5.28496 10.7516 -15.7416
ltibia 27.1562
lfoot -21.4441 6.15509
ltoes -2.39159
8
root 49.5641 15.9772 16.932 175.598 -49.6536 -173.055
lowerback -2.17281 -0.811218 4.22626
upperback 3.59488 -1.46477 1.88659
thorax 4.88978 -0.652171 -0.509823
lowerneck -2.97058 -0.823598 1.48801
upperneck 1.77538 -1.17283 0.433559
head 1.02928 -0.571035 -0.134045
rclavicle -5.16592e-014 2.0276e-014
rhumerus -30.5158 -4.43013 -83.4964
rradius 30.016
rwrist 2.18047
rhand -21.2616 -2.74665
rfingers 7.12502
rthumb 5.12173 -32.6648
lclavicle -5.16592e-014 2.0276e-014
lhumerus -28.9345 5.25902 86.3117
lradius 27.0935
lwrist 20.0452
lhand -17.1187 8.83228
lfingers 7.12502
lthumb 9.12083 38.6151
rfemur -10.6979 2.50643 27.7298
rtibia 34.7243
rfoot -25.5109 -12.3306
rtoes 2.81448
lfemur -5.23717 10.7494 -15.7559
ltibia 27.1372
lfoot -21.4452 6.18112
ltoes -2.38546
9
root 49.5632 15.9764 16.932 175.588 -49.6337 -173.081
lowerback -2.17238 -0.803859 4.21844
upperback 3.61922 -1.45594 1.8798
thorax 4.9154 -0.647503 -0.512095
lowerneck -2.97933 -0.824663 1.49464
upperneck 1.7615 -1.17479 0.439954
head 1.02641 -0.571994 -0.133208
rclavicle -6.40584e-014 -6.36111e-015
rhumerus -30.4987 -4.471 -83.4988
rradius 30.0317
rwrist 2.22078
rhand -21.2305 -2.94914
rfingers 7.12502
rthumb 5.15177 -32.8665
lclavicle -6.40584e-014 -6.36111e-015
lhumerus -28.9215 5.25279 86.3093
lradius 27.1212
lwrist 20.048
lhand -17.1226 8.82124
lfingers 7.12502
lthumb 9.11707 38.6042
rfemur -10.6697 2.52299 27.7151
rtibia 34.7358
rfoot -25.5173 -12.333
rtoes 2.80343
lfemur -5.1873 10.7441 -15.7701
ltibia 27.1194
lfoot -21.4477 6.20643
ltoes -2.39136
10
root 49.5626 15.9757 16.932 175.576 -49.6185 -173.106
lowerback -2.1677 -0.799022 4.20922
upperback 3.6422 -1.45017 1.87422
thorax 4.93709 -0.644526 -0.51245
lowerneck -2.98428 -0.823613 1.4975
upperneck 1.74694 -1.17373 0.447607
head 1.02273 -0.571462 -0.131284
rclavicle -3.97569e-014 -4.37326e-015
rhumerus -30.4857 -4.51091 -83.4987
rradius 30.0537
rwrist 2.2742
rhand -21.1473 -3.15748
rfingers 7.12502
rthumb 5.23211 -33.0729
lclavicle -3.97569e-014 -4.37326e-015
lhumerus -28.9008 5.23885 86.3108
lradius 27.1308
lwrist 20.0605
lhand -17.1426 8.79935
lfingers 7.12502
lthumb 9.09777 38.5831
rfemur -10.6393 2.53755 27.7007
rtibia 34.7469
rfoot -25.5269 -12.3321
rtoes 2.80717
lfemur -5.13761 10.7367 -15.7834
ltibia 27.1021
lfoot -21.4502 6.22569
ltoes -2.37664
11
root 49.5623 15.9751 16.932 175.563 -49.6085 -173.124
lowerback -2.16364 -0.798312 4.19712
upperback 3.66224 -1.44997 1.87386
thorax 4.95604 -0.644634 -0.506126
lowerneck -2.98219 -0.820297 1.49108
upperneck 1.72763 -1.16914 0.457977
head 1.01643 -0.569237 -0.126869
rclavicle -5.889e-015 7.15625e-015
rhumerus -30.4745 -4.54648 -83.4921
rradius 30.0717
rwrist 2.34461
rhand -21.023 -3.27869
rfingers 7.12502
rthumb 5.35214 -33.1911
lclavicle -5.889e-015 7.15625e-015
lhumerus -28.8845 5.23192 86.3159
lradius 27.1405
lwrist 20.0724
lhand -17.1657 8.77815
lfingers 7.12502
lthumb 9.07549 38.5629
rfemur -10.6133 2.55134 27.6909
rtibia 34.7576
rfoot -25.5401 -12.3306
rtoes 2.82704
lfemur -5.09516 10.7302 -15.7919
ltibia 27.0855
lfoot -21.4503 6.23713
ltoes -2.36166
